<svg width="150" height="160" viewBox="0 0 150 160" fill="none" xmlns="http://www.w3.org/2000/svg">
<path d="M135.661 0.880585H14.7871C7.11391 0.880585 0.893555 7.09514 0.893555 14.7612V145.239C0.893555 152.905 7.11391 159.119 14.7871 159.119H135.661C143.334 159.119 149.555 152.905 149.555 145.239V14.7612C149.555 7.09514 143.334 0.880585 135.661 0.880585Z" fill="black"/>
<path d="M79.7799 28.6417L110.642 45.3942V63.291L86.2651 110.344L57.2889 106.225L48.872 85.3072L51.7237 45.3942L79.7799 28.6417ZM113.585 51.7565L120.439 68.0055L113.585 62.879V51.7565ZM48.2741 52.0769L45.8824 85.4445C45.8648 85.6614 45.8972 85.8821 45.9744 86.0854L53.3794 104.532L28.6807 92.2189L48.2741 52.0769ZM112.62 65.7626L122.048 72.8115C113.949 89.4089 107.536 103.172 99.0054 119.27C96.8142 123.394 94.9232 126.693 93.5321 128.882L88.6568 112.038L112.62 65.7626ZM29.6006 95.9264L53.7934 107.964L40.4552 122.382L29.6006 95.9264ZM56.783 109.109L85.9431 113.228L90.9565 130.667L42.9848 124.076L56.783 109.109Z" fill="white"/>
</svg>
